#!OML:ASF F:\VICON\USERDATA\Patient Classification 1\PLAYGROUND\JustinFriday\JustinFriday.ASF
:FULLY-SPECIFIED
:DEGREES
1974
root -7.17892 17.096 10.5748 241.536 85.7499 -89.0008
lowerback 15.8174 -1.5649 -1.34078
upperback -0.126675 -2.12857 1.68016
thorax -8.91581 -0.903024 3.06199
lowerneck 16.731 -14.4395 -17.1603
upperneck 9.17407 -21.5445 -0.12576
head 2.07024 -11.1645 2.72104
rclavicle 3.3694e-014 -6.36111e-015
rhumerus 61.3725 -6.29117 -69.3394
rradius 93.3095
rwrist 12.3742
rhand -1.94774 -378.749
rfingers 7.12502
rthumb 23.7235 -407.305
lclavicle 3.3694e-014 -6.36111e-015
lhumerus 60.699 9.25911 64.7301
lradius 92.2551
lwrist -20.4569
lhand 13.0531 -9.43513
lfingers 7.12502
lthumb 38.016 16.3597
rfemur -2.9722 -4.95909 24.1421
rtibia 56.2904
rfoot -13.4183 -13.9935
rtoes 9.67315
lfemur 1.09364 6.79802 -7.83378
ltibia 57.6438
lfoot -14.0787 -1.3542
ltoes -6.03216
1975
root -7.31131 17.0925 10.5801 242.247 85.8453 -88.743
lowerback 15.9134 -1.48535 -1.44493
upperback -0.184218 -2.03495 1.76307
thorax -9.03207 -0.848208 3.19536
lowerneck 16.5901 -14.5068 -17.2374
upperneck 8.90897 -21.639 -0.085548
head 2.02678 -11.2025 2.7381
rclavicle -2.48481e-015 -9.24349e-015
rhumerus 61.3313 -6.21661 -69.0665
rradius 93.405
rwrist 12.6288
rhand -1.98776 -378.294
rfingers 7.12502
rthumb 23.6851 -406.854
lclavicle -2.48481e-015 -9.24349e-015
lhumerus 60.9113 9.44159 64.8156
lradius 92.1
lwrist -20.3351
lhand 12.8461 -9.92302
lfingers 7.12502
lthumb 37.8205 15.9248
rfemur -2.75974 -4.88704 24.0731
rtibia 56.724
rfoot -13.4199 -14.165
rtoes 10.2775
lfemur 1.51689 7.01711 -7.75072
ltibia 57.8238
lfoot -13.9044 -2.0755
ltoes -4.34233
1976
root -7.44028 17.1019 10.5993 240.694 86.1273 -90.8451
lowerback 15.7706 -1.34545 -1.85443
upperback -0.172163 -1.93461 1.67553
thorax -8.93398 -0.787065 3.30438
lowerneck 16.4008 -14.9299 -16.3922
upperneck 8.27229 -22.0352 -0.914412
head 1.82771 -11.3464 2.74783
rclavicle 3.11595e-014 -3.75703e-014
rhumerus 61.1753 -6.31828 -68.9854
rradius 93.6962
rwrist 12.6716
rhand -2.02328 -378.157
rfingers 7.12502
rthumb 23.6511 -406.723
lclavicle 3.11595e-014 -3.75703e-014
lhumerus 60.4804 9.10664 65.5057
lradius 92.6809
lwrist -20.6638
lhand 12.6168 -10.5052
lfingers 7.12502
lthumb 37.6038 15.4007
rfemur -2.61145 -4.84549 23.775
rtibia 57.0922
rfoot -13.1499 -14.5042
rtoes 8.51164
lfemur 1.87283 6.88611 -8.16575
ltibia 57.8893
lfoot -13.6461 -2.23011
ltoes -1.98173
1977
root -7.57268 17.1116 10.6098 241.757 86.0525 -90.3732
lowerback 15.5886 -1.2846 -1.50451
upperback -0.181833 -1.81174 1.43938
thorax -8.86817 -0.752058 2.8159
lowerneck 16.6803 -14.597 -17.9675
upperneck 8.37056 -22.0181 2.08834
head 2.19255 -11.4286 3.42628
rclavicle -1.25017e-014 3.97631e-014
rhumerus 60.9903 -6.64161 -69.5531
rradius 93.9012
rwrist 12.7659
rhand -1.697 -377.766
rfingers 7.12502
rthumb 23.964 -406.29
lclavicle -1.25017e-014 3.97631e-014
lhumerus 60.7087 8.97792 64.3047
lradius 92.2959
lwrist -20.1008
lhand 11.3248 -10.7142
lfingers 7.12502
lthumb 36.3818 15.5076
rfemur -2.50144 -4.90687 23.8402
rtibia 57.404
rfoot -12.9967 -14.6947
rtoes 6.69991
lfemur 2.21312 6.71956 -8.20365
ltibia 57.9057
lfoot -13.4591 -2.02244
ltoes -3.17734
1978
root -7.70919 17.1164 10.6144 241.069 85.8245 -91.6727
lowerback 15.6519 -1.43838 -1.7349
upperback -0.368015 -2.0268 1.79397
thorax -9.07466 -0.830059 3.38711
lowerneck 17.4534 -14.7989 -17.7456
upperneck 7.25658 -22.406 1.80183
head 1.71637 -11.5599 3.43092
rclavicle 3.67752e-015 1.70955e-014
rhumerus 61.097 -5.94088 -69.834
rradius 94.0132
rwrist 12.7361
rhand -1.45292 -377.438
rfingers 7.12502
rthumb 24.198 -405.932
lclavicle 3.67752e-015 1.70955e-014
lhumerus 60.3582 9.13473 65.8102
lradius 92.7265
lwrist -20.9923
lhand 12.1457 -11.3823
lfingers 7.12502
lthumb 37.1586 14.641
rfemur -2.41778 -5.1602 23.9487
rtibia 57.7431
rfoot -13.14 -14.5868
rtoes 7.47217
lfemur 2.46765 6.30439 -8.24113
ltibia 57.8703
lfoot -13.458 -1.89692
ltoes -4.92443
1979
root -7.84929 17.1194 10.6213 239.16 85.5864 -94.1336
lowerback 15.4169 -1.64686 -1.22627
upperback -0.217135 -2.23535 1.50809
thorax -8.79289 -0.968135 2.8215
lowerneck 16.7491 -14.935 -15.1692
upperneck 5.64722 -22.0972 -0.188089
head 0.814072 -11.2365 3.01747
rclavicle 6.88913e-015 1.95554e-014
rhumerus 61.2213 -6.03487 -70.5372
rradius 94.1953
rwrist 12.8878
rhand -1.68154 -377.353
rfingers 7.12502
rthumb 23.9788 -405.875
lclavicle 6.88913e-015 1.95554e-014
lhumerus 60.3241 9.53044 63.322
lradius 92.6865
lwrist -19.6971
lhand 10.9476 -8.8621
lfingers 7.12502
lthumb 36.0246 17.4484
rfemur -2.30801 -5.3892 24.0856
rtibia 58.0934
rfoot -13.1461 -14.5225
rtoes 8.47884
lfemur 2.72492 6.32836 -7.97173
ltibia 57.7869
lfoot -13.315 -2.49139
ltoes -4.48699
1980
root -7.98842 17.124 10.637 238.002 85.485 -95.931
lowerback 15.5975 -1.50064 -1.41542
upperback -0.504673 -2.0511 1.79881
thorax -9.20275 -0.853315 3.21859
lowerneck 16.8448 -14.6674 -17.5472
upperneck 6.6359 -22.1425 2.09536
head 1.59228 -11.4041 3.48429
rclavicle -3.77442e-014 3.27001e-014
rhumerus 60.8432 -6.11252 -69.7994
rradius 94.3187
rwrist 13.041
rhand -1.92845 -377.439
rfingers 7.12502
rthumb 23.742 -405.992
lclavicle -3.77442e-014 3.27001e-014
lhumerus 60.3416 9.21546 64.3417
lradius 92.062
lwrist -20.0133
lhand 10.4765 -10.2388
lfingers 7.12502
lthumb 35.5781 16.1803
rfemur -2.33909 -5.42616 24.2036
rtibia 58.4766
rfoot -13.1396 -14.5737
rtoes 8.44554
lfemur 2.95909 6.40569 -7.85995
ltibia 57.6675
lfoot -13.117 -2.54135
ltoes -4.84129
1981
root -8.12155 17.1432 10.6603 233.106 85.8091 -101.625
lowerback 15.1792 -1.36753 -1.78704
upperback -0.498126 -1.97094 1.5103
thorax -8.96057 -0.812991 3.08257
lowerneck 16.9552 -14.9633 -16.2652
upperneck 5.12322 -22.4053 1.73913
head 0.951534 -11.4363 3.34192
rclavicle 1.32875e-014 -2.42517e-014
rhumerus 60.8077 -6.62763 -69.8424
rradius 94.4378
rwrist 13.3302
rhand -2.10999 -377.423
rfingers 7.12502
rthumb 23.5679 -405.998
lclavicle 1.32875e-014 -2.42517e-014
lhumerus 60.6843 8.50554 64.6574
lradius 92.2849
lwrist -20.6655
lhand 10.4708 -9.59284
lfingers 7.12502
lthumb 35.5728 16.8275
rfemur -2.45975 -5.4604 23.7064
rtibia 58.7962
rfoot -13.2749 -14.3921
rtoes 8.98776
lfemur 3.07596 6.53406 -8.35339
ltibia 57.4691
lfoot -13.1141 -2.4206
ltoes -6.84964
1982
root -8.25753 17.1498 10.6711 227.256 86.0434 -108.154
lowerback 14.8184 -1.38305 -2.09172
upperback -0.40088 -2.06974 1.21303
thorax -8.64371 -0.863566 2.93976
lowerneck 15.92 -15.19 -15.467
upperneck 5.41487 -22.3998 1.11287
head 1.09821 -11.4294 3.37722
rclavicle 1.93318e-014 -2.38542e-014
rhumerus 61.0164 -6.81998 -70.2052
rradius 94.4931
rwrist 13.6781
rhand -2.25998 -377.077
rfingers 7.12502
rthumb 23.424 -405.671
lclavicle 1.93318e-014 -2.38542e-014
lhumerus 60.7758 8.48084 64.3832
lradius 92.7005
lwrist -20.4681
lhand 10.4587 -9.74592
lfingers 7.12502
lthumb 35.5613 16.6772
rfemur -2.46108 -5.67242 23.1146
rtibia 59.0714
rfoot -13.0147 -14.1379
rtoes 8.43425
lfemur 3.19822 6.23836 -9.07267
ltibia 57.273
lfoot -13.0336 -2.20086
ltoes -8.61366
